<?xml version="1.0" encoding="UTF-8"?>
<svg id="_레이어_1" data-name="레이어_1" xmlns="http://www.w3.org/2000/svg" version="1.1" viewBox="0 0 197.26 87.19">
  <!-- Generator: Adobe Illustrator 30.1.0, SVG Export Plug-In . SVG Version: 2.1.1 Build 136)  -->
  <defs>
    <style>
      .st0 {
        fill: #f7cf68;
      }
    </style>
  </defs>
  <path class="st0" d="M95.97,62.22l10.81,2.64,5.97,1.07,3.92.55,3.54.42,6.51.5c5.58.43,10.95.43,16.53-.02l5.32-.43,4.11-.48,3.17-.47,2.69-.45c1.08-.18,2.19-.33,3.27-.59l7.32-1.76,10.95-3.33c-9.43,4.85-22.38,8.36-32.86,9.58l-4.23.49-6.67.42c-4.06.25-7.94.16-11.98-.15l-6.48-.5-3.1-.35c-12.13-1.38-21.5-5.26-33.88-6.88l-3.17-.41-3.85-.44-7.28-.49c-16.87-1.13-33.44,1.91-49.57,7.12,7.62-3.84,15.77-6.26,24.15-7.8l2.45-.45,3.15-.46,4.17-.51,2.63-.29,6.11-.41c3.98-.27,7.8,0,11.96.17l3.48.15s6.43.32,20.87,3.61Z"/>
  <g>
    <path d="M71.62,58.94l-.53-8.12c-.14-2.3-2.27-1.74-2.3-2.58-.06-1.61,4.74-.62,5.02-.63l13.3-.11c.99,0,3.03-1.26,4.93.34-.14.58-.52,1.33-.58,1.87l-.67,6.77c.49.34.93.67,1.05.95.13.32-.14,1.29-.49,1.39l-16.74.13h-3ZM51.78,59.72c-.46.05-.87-.3-.89-.76l-.04-.9-.06-32c0-1.86-3.69-2.29-3.62-3.2.15-1.89,6.05.22,7.18.61l-.08,1.87v12.74c1.6.15,2.62-.29,3.85-.85s3.04-.09,3.9.85c.18.2.28.92.24,1.18s-.55.64-.82.65l-7.19.08-.06,12.71c0,2.02-.27,3.88-.53,5.86-.07.57-.53,1.02-1.1,1.08l-.8.09ZM88,49.9c0-.21-.69-.56-.89-.55l-12.7.21.22,7.45,13.24-.14.14-6.97Z"/>
    <path d="M106.96,28.07c-.03-1.69-2.4-1.61-2.75-2.37-.71-1.56,6.04-.77,6.05.15l.06,4.27,14.74-.34c0-1.39,0-2.46-.21-3.75-.19-1.14-2.76-1.17-2.67-2.21.13-1.39,4.92-.07,5.9.23.45.14.25,1.17.25,1.56l-.06,11.03c-.01,2.43-.44,3.05-1.72,3.73-.73.39-1.23-.97-1.71-.97l-13.48.14c-2.2.02-1.47,1.97-3.35,1.42-.44-.13-.85-.89-.86-1.48l-.2-11.4ZM125.07,37.36v-5.66s-14.8.33-14.8.33l.05,5.66,14.75-.33Z"/>
    <path d="M31.25,47.96c-.28.46-.85.83-1.37.82-.45,0-1.1-.66-1.13-1.28l-.66-14.33c-.14-3.12-2.87-2.41-2.73-3.4.25-1.67,4.96-.57,5.62-.54,3.42.16,6.85.15,10.27-.2,1.51-.15,2.97-.8,4.26.52,0,.32-.39,1.23-.42,1.7l-1.07,13.26c.87.26,1.28.66,1.23,1.34-.05.59-.62.96-1.35.96l-11.98.05-.68,1.1ZM41.13,44.75l.45-13.66-10.21.16.4,13.72,9.37-.22Z"/>
    <path d="M74.22,36.7c-2.98-1.8-4.03-5.21-2.52-8.13,1.72-3.32,4.21-3.75,7.62-4.65l-1.31-1.37c.58-1.09,2.53-.57,3.73-.21.8.24,1.04,1.05,1.09,1.79,3.86.64,7.76,2.89,7.7,7.1-.03,2-.98,4.05-2.87,5.26-3.96,2.53-9.33,2.71-13.45.22ZM84.9,35.07c2.09-1.53,2.86-4.38,1.35-6.47-2.51-3.47-7.9-3.61-10.64-.36-1.79,2.11-1.18,5.07.95,6.77,2.33,1.85,5.84,1.91,8.35.06Z"/>
    <path d="M156.49,53.42l-10.07.18c-3.88.07-4.51,2.27-9.48-.97-.17-.11-.46-.6-.56-.77-.11-.2.54-.69.89-.65,4.09.44,8.86.55,13.36.39l.07-9.94c0-1.16-.56-2.11-1.81-2.32l-.69-.66c-.16-.16.43-.8.69-.84,1.4-.22,3.33.11,4.89.53.27.49.24.83.23,1.38l-.04,11.85,11.15-.19c2.17-1.31,4.65-1.17,6.85-.06.23.46.44.98.42,1.4s-.75.78-1.27.77l-14.63-.09Z"/>
    <path d="M116.08,57.63l.03-11.27c-3.17.07-6.4-.1-9.5.55-1.38.29-2.39.59-3.77.08-.81-.3-3.68-1.17-3.25-2.45.3-.9,3.99-.02,5.79-.04l22.98-.32c1.99-1.3,6.83-1.4,7.31.99.07.36-.41,1.14-.86,1.13-5.21-.15-10.23-.21-15.39-.03l-.1,10.22c-.01,1.1-.38,2.24-.66,3.29l-.81.73c-.2.18-1.03,0-1.17-.23-.31-.54-.61-1.79-.61-2.64Z"/>
    <path d="M163.19,28.74l-13.07.18c-1.51.02-2.85.31-4.31.79-1.61-.18-4.07-.91-4.55-2.56-.05-.18.45-.47.67-.45,3.55.4,7.33.42,10.96.33l10.07-.25c1.39-.86,2.95-.57,4.19.36l-.28,1.7-1.38,10.16c-.15,1.12-1.85,9.05-4.33,7.55.04-1.88.32-3.53.82-5.25l1.2-12.57Z"/>
    <path d="M68.3,44.39c-1.32.35-6.13-1.05-5.69-2.69.05-.19.55-.48.76-.45,4.26.59,8.53.49,12.81.42l13.53-.22c1.25-.02,2.39-.32,3.58-.73,1.65-.57,5.55-.27,5.49,1.96,0,.3-.53.79-.92.78-8.77-.15-17.32-.09-26.1.23-1.23.05-2.28.38-3.46.7Z"/>
  </g>
</svg>