<svg xmlns="http://www.w3.org/2000/svg" viewBox="0 0 100 140" fill="#1A1A1A">
  <!-- 추모 리본 SVG -->
  <path d="M50 10 
           C35 10 25 25 25 40 
           C25 55 35 65 45 75 
           L30 130 
           L50 110 
           L70 130 
           L55 75 
           C65 65 75 55 75 40 
           C75 25 65 10 50 10 
           Z 
           M50 25 
           C58 25 65 32 65 40 
           C65 48 58 55 50 55 
           C42 55 35 48 35 40 
           C35 32 42 25 50 25 
           Z"/>
</svg>
