<svg xmlns="http://www.w3.org/2000/svg" xmlns:xlink="http://www.w3.org/1999/xlink" width="2358" height="1083" viewBox="0 0 2358 1083">
  <defs>
    <clipPath id="clip-아트보드_7">
      <rect width="2358" height="1083"/>
    </clipPath>
  </defs>
  <g id="아트보드_7" data-name="아트보드 – 7" clip-path="url(#clip-아트보드_7)">
    <rect width="2358" height="1083" fill="#fff"/>
    <g id="사각형_14" data-name="사각형 14" transform="translate(1962.626 211.381) rotate(90)" fill="#fff" stroke="#1a1311" stroke-miterlimit="10" stroke-width="1">
      <rect width="702.992" height="246.614" stroke="none"/>
      <rect x="0.5" y="0.5" width="701.992" height="245.614" fill="none"/>
    </g>
    <text id="_248mm" data-name="248mm" transform="translate(1650.333 567.269)" fill="#1a1311" font-size="12" font-family="Helvetica"><tspan x="0" y="0">248mm</tspan></text>
    <path id="합치기_12" data-name="합치기 12" d="M210.015-52.933v-12h-6v-4h6v-6h4v6h6v4h-6v12Z" transform="translate(696.827 141.932)" fill="#de0615"/>
    <path id="합치기_14" data-name="합치기 14" d="M179.015-51.932a2,2,0,0,1-2-2,2,2,0,0,1,2-2v-9h-3a2,2,0,0,1-2,2,2,2,0,0,1-2-2,2,2,0,0,1-2-2,2,2,0,0,1,2-2,2,2,0,0,1,2-2,2,2,0,0,1,2,2h3v-4a2,2,0,0,1-2-2,2,2,0,0,1,2-2,2,2,0,0,1,2-2,2,2,0,0,1,2,2,2,2,0,0,1,2,2,2,2,0,0,1-2,2v4h3a2,2,0,0,1,2-2,2,2,0,0,1,2,2,2,2,0,0,1,2,2,2,2,0,0,1-2,2,2,2,0,0,1-2,2,2,2,0,0,1-2-2h-3v9a2,2,0,0,1,2,2,2,2,0,0,1-2,2,2,2,0,0,1-2,2A2,2,0,0,1,179.015-51.932Z" transform="translate(696.827 141.932)" fill="#262727"/>
    <path id="합치기_19" data-name="합치기 19" d="M243.651-54.932h-3.274v-7.363h-4.09v7.363h-3.272V-65.568h7.364v-4.09h-7.364v-3.274H243.65v7.365h4.09v-7.365h3.275v10.638h-7.364v4.09h7.364v3.273Z" transform="translate(696.827 141.932)" fill="#de0615"/>
    <g id="타원_90" data-name="타원 90" transform="translate(696.827 141.932)">
      <circle id="타원_2" data-name="타원 2" cx="10.5" cy="10.5" r="10.5" transform="translate(263.015 -74.933)" fill="none"/>
      <circle id="타원_3" data-name="타원 3" cx="8.5" cy="8.5" r="8.5" transform="translate(265.015 -72.933)" fill="none" stroke="#eaad2d" stroke-width="4"/>
    </g>
    <g id="그룹_731" data-name="그룹 731" transform="translate(696.827 141.932)">
      <g id="그룹_730" data-name="그룹 730">
        <path id="패스_2433" data-name="패스 2433" d="M300.89-59.327a12.175,12.175,0,0,1-2.58-4.073c-.226-.01-.448-.014-.664-.014a16.191,16.191,0,0,0-3.632.4s2.074,4.5,5.948,6.348a11.5,11.5,0,0,0,4.918,1,16.525,16.525,0,0,0,2.919-.266c-.442-.088-.965-.211-1.532-.38A12.858,12.858,0,0,1,300.89-59.327Z" fill="#c94251"/>
        <path id="패스_2434" data-name="패스 2434" d="M305.975-65.137a12.39,12.39,0,0,1,1.042-4.384,16.482,16.482,0,0,0-3.69-2.771,16.394,16.394,0,0,0-.542,5.142A12.205,12.205,0,0,1,305.975-65.137Z" fill="#c94251"/>
        <path id="패스_2435" data-name="패스 2435" d="M316.872-67.15a16.424,16.424,0,0,0-.542-5.142,16.459,16.459,0,0,0-3.69,2.771,12.412,12.412,0,0,1,1.042,4.384A12.172,12.172,0,0,1,316.872-67.15Z" fill="#c94251"/>
        <path id="패스_2436" data-name="패스 2436" d="M322.013-63.414c-.216,0-.438,0-.664.014a12.175,12.175,0,0,1-2.58,4.073,12.849,12.849,0,0,1-5.377,3.016c-.569.169-1.09.292-1.532.38a16.33,16.33,0,0,0,2.919.266,11.5,11.5,0,0,0,4.918-1c3.874-1.845,5.948-6.348,5.948-6.348A16.257,16.257,0,0,0,322.013-63.414Z" fill="#c94251"/>
        <path id="패스_2437" data-name="패스 2437" d="M320.587-63.347c.051-.119.1-.238.146-.357s.091-.237.135-.355a16.327,16.327,0,0,0,.9-3.724,16.437,16.437,0,0,0-4.245,1.1c-.117.048-.235.1-.353.15s-.242.108-.368.169A10.8,10.8,0,0,0,313.8-64.3l-.13.134a13.233,13.233,0,0,1-1.568,5.122l-.078.146c-.05.092-.1.181-.148.268-.147.26-.292.5-.432.722-.164.259-.319.49-.458.688-.088.125-.169.238-.242.336-.168.226-.292.38-.351.45v.034l.119-.011c.089-.01.227-.026.4-.051.122-.018.263-.04.42-.067a13.377,13.377,0,0,0,6.958-3.282A11.2,11.2,0,0,0,320.587-63.347Z" fill="#c94251"/>
        <path id="패스_2438" data-name="패스 2438" d="M308.92-56.884c-.073-.1-.155-.211-.242-.336-.139-.2-.294-.429-.458-.688-.139-.221-.284-.461-.432-.721-.049-.088-.1-.177-.148-.269l-.078-.146a13.233,13.233,0,0,1-1.568-5.122l-.13-.134a10.8,10.8,0,0,0-3.006-2.064c-.122-.058-.245-.115-.368-.169s-.24-.1-.353-.149a16.439,16.439,0,0,0-4.245-1.1,16.347,16.347,0,0,0,.9,3.725c.043.117.088.235.135.355s.1.238.146.356a11.159,11.159,0,0,0,2.3,3.535,13.373,13.373,0,0,0,6.958,3.282c.157.027.3.049.42.067.177.025.314.042.4.051l.119.011v-.034C309.212-56.505,309.088-56.658,308.92-56.884Z" fill="#c94251"/>
        <path id="패스_2439" data-name="패스 2439" d="M310.617-57.911A14.354,14.354,0,0,0,312.85-63.2q.059-.336.1-.683.03-.283.043-.572c0-.126.009-.253.009-.381a11.2,11.2,0,0,0-.876-4.142c-.049-.119-.1-.237-.148-.354s-.1-.228-.15-.334a16.327,16.327,0,0,0-2-3.271,16.327,16.327,0,0,0-2,3.271c-.05.109-.1.221-.15.334s-.1.231-.148.354a11.194,11.194,0,0,0-.876,4.142c0,.127,0,.255.009.381.008.193.023.384.042.572.025.231.059.459.1.683a14.371,14.371,0,0,0,2.233,5.286l.12.176c.053.078.1.151.154.219.074.1.144.2.2.279l.106.14q.082.106.135.171l.075.091s.027-.031.075-.091c.034-.042.08-.1.135-.171l.106-.14c.061-.082.13-.175.2-.279.049-.069.1-.141.154-.219C310.54-57.791,310.579-57.849,310.617-57.911Z" fill="#c94251"/>
      </g>
    </g>
    <text id="顯_叔_父_學_生_府_君_神_位" data-name="顯
叔
父
學
生
府
君
神
位" transform="translate(1818.508 398.57)" fill="#1a1311" font-size="41.62" font-family="BiauKaiTC-Regular, BiauKaiTC"><tspan x="0" y="0">顯</tspan><tspan x="0" y="49.944">叔</tspan><tspan x="0" y="99.887">父</tspan><tspan x="0" y="149.831">學</tspan><tspan x="0" y="199.775">生</tspan><tspan x="0" y="249.718">府</tspan><tspan x="0" y="299.662">君</tspan><tspan x="0" y="349.606">神</tspan><tspan x="0" y="399.549">位</tspan></text>
    <g id="사각형_15" data-name="사각형 15" transform="translate(1136.186 211.381) rotate(90)" fill="#fff" stroke="#1a1311" stroke-miterlimit="10" stroke-width="1">
      <rect width="702.992" height="246.614" stroke="none"/>
      <rect x="0.5" y="0.5" width="701.992" height="245.614" fill="none"/>
    </g>
    <g id="사각형_28" data-name="사각형 28" transform="translate(711.85 211.381) rotate(90)" fill="#fff" stroke="#1a1311" stroke-miterlimit="10" stroke-width="1">
      <rect width="702.992" height="246.614" stroke="none"/>
      <rect x="0.5" y="0.5" width="701.992" height="245.614" fill="none"/>
    </g>
    <g id="사각형_16" data-name="사각형 16" transform="translate(1130.517 217.05) rotate(90)" fill="#fff" stroke="#1a1311" stroke-miterlimit="10" stroke-width="4">
      <rect width="691.654" height="235.276" stroke="none"/>
      <rect x="2" y="2" width="687.654" height="231.276" fill="none"/>
    </g>
    <g id="사각형_29" data-name="사각형 29" transform="translate(706.275 217.05) rotate(90)" fill="#fff" stroke="#1a1311" stroke-miterlimit="10" stroke-width="4">
      <rect width="691.654" height="235.276" stroke="none"/>
      <rect x="2" y="2" width="687.654" height="231.276" fill="none"/>
    </g>
    <g id="사각형_17" data-name="사각형 17" transform="translate(900.91 222.719)" fill="none" stroke="#1a1311" stroke-miterlimit="10" stroke-width="1">
      <rect width="223.937" height="680.315" stroke="none"/>
      <rect x="0.5" y="0.5" width="222.937" height="679.315" fill="none"/>
    </g>
    <g id="사각형_30" data-name="사각형 30" transform="translate(476.574 222.719)" fill="none" stroke="#1a1311" stroke-miterlimit="10" stroke-width="1">
      <rect width="223.937" height="680.315" stroke="none"/>
      <rect x="0.5" y="0.5" width="222.937" height="679.315" fill="none"/>
    </g>
    <text id="_87mm" data-name="87mm" transform="translate(994.879 194.389)" fill="#1a1311" font-size="12" font-family="Helvetica"><tspan x="0" y="0">87mm</tspan></text>
    <text id="_87mm-2" data-name="87mm" transform="translate(570.543 194.389)" fill="#1a1311" font-size="12" font-family="Helvetica"><tspan x="0" y="0">87mm</tspan></text>
    <text id="_248mm-2" data-name="248mm" transform="translate(823.894 567.269)" fill="#1a1311" font-size="12" font-family="Helvetica"><tspan x="0" y="0">248mm</tspan></text>
    <text id="_248mm-3" data-name="248mm" transform="translate(399.558 567.269)" fill="#1a1311" font-size="12" font-family="Helvetica"><tspan x="0" y="0">248mm</tspan></text>
    <g id="사각형_18" data-name="사각형 18" transform="translate(1124.847 903.034)" fill="#fff" stroke="#1a1311" stroke-miterlimit="10" stroke-width="4">
      <rect width="5.669" height="5.669" stroke="none"/>
      <rect x="2" y="2" width="1.669" height="1.669" fill="none"/>
    </g>
    <text id="顯_叔_父_學_生_府_君_神_位-2" data-name="顯
叔
父
學
生
府
君
神
位" transform="translate(992.069 398.57)" fill="#1a1311" font-size="41.62" font-family="BiauKaiTC-Regular, BiauKaiTC"><tspan x="0" y="0">顯</tspan><tspan x="0" y="49.944">叔</tspan><tspan x="0" y="99.887">父</tspan><tspan x="0" y="149.831">學</tspan><tspan x="0" y="199.775">生</tspan><tspan x="0" y="249.718">府</tspan><tspan x="0" y="299.662">君</tspan><tspan x="0" y="349.606">神</tspan><tspan x="0" y="399.549">位</tspan></text>
    <text id="홍_길_동" data-name="홍
길
동" transform="translate(568 468)" fill="#1a1311" font-size="42" font-family="AppleSDGothicNeo-Regular, Apple SD Gothic Neo"><tspan x="0" y="0">홍</tspan><tspan y="0" font-family="Helvetica"></tspan><tspan x="0" y="121">길</tspan><tspan y="121" font-family="Helvetica"></tspan><tspan x="0" y="242">동</tspan></text>
    <text id="고_인" data-name="고
인" transform="translate(610 837)" fill="#1a1311" font-size="20" font-family="AppleSDGothicNeo-Regular, Apple SD Gothic Neo"><tspan x="0" y="0">고</tspan><tspan y="0" font-family="Helvetica"></tspan><tspan x="0" y="30">인</tspan></text>
    <g id="그룹_731-2" data-name="그룹 731" transform="translate(696.827 141.932)">
      <g id="그룹_730-2" data-name="그룹 730">
        <path id="패스_2433-2" data-name="패스 2433" d="M298.41,188.705a24.037,24.037,0,0,1-5.092-8.038c-.446-.019-.884-.027-1.31-.027a32.006,32.006,0,0,0-7.168.789s4.093,8.881,11.738,12.527a22.715,22.715,0,0,0,9.706,1.974,32.536,32.536,0,0,0,5.76-.525c-.872-.174-1.9-.417-3.023-.75A25.383,25.383,0,0,1,298.41,188.705Z" fill="#c94251"/>
        <path id="패스_2434-2" data-name="패스 2434" d="M308.445,177.239a24.5,24.5,0,0,1,2.056-8.652,32.415,32.415,0,0,0-7.282-5.468,32.4,32.4,0,0,0-1.069,10.148A24.021,24.021,0,0,1,308.445,177.239Z" fill="#c94251"/>
        <path id="패스_2435-2" data-name="패스 2435" d="M329.95,173.267a32.373,32.373,0,0,0-1.07-10.148,32.438,32.438,0,0,0-7.282,5.468,24.5,24.5,0,0,1,2.057,8.652A24.021,24.021,0,0,1,329.95,173.267Z" fill="#c94251"/>
        <path id="패스_2436-2" data-name="패스 2436" d="M340.1,180.64c-.427,0-.865,0-1.311.027a24.034,24.034,0,0,1-5.091,8.038,25.38,25.38,0,0,1-10.612,5.952c-1.123.334-2.151.577-3.023.75a32.443,32.443,0,0,0,5.76.525,22.729,22.729,0,0,0,9.706-1.973c7.645-3.641,11.738-12.528,11.738-12.528A32.064,32.064,0,0,0,340.1,180.64Z" fill="#c94251"/>
        <path id="패스_2437-2" data-name="패스 2437" d="M337.282,180.772c.1-.236.2-.47.288-.705s.179-.467.266-.7a32.159,32.159,0,0,0,1.776-7.35,32.466,32.466,0,0,0-8.378,2.171q-.345.143-.7.3t-.726.334a21.279,21.279,0,0,0-5.933,4.073l-.256.264a26.105,26.105,0,0,1-3.095,10.109l-.153.288q-.147.27-.292.529c-.29.513-.577.986-.853,1.424-.323.512-.629.967-.9,1.358-.173.247-.333.47-.477.663-.331.446-.576.75-.693.888v.067l.235-.022c.176-.019.448-.051.789-.1.241-.036.519-.079.829-.132a26.4,26.4,0,0,0,13.731-6.477A22.064,22.064,0,0,0,337.282,180.772Z" fill="#c94251"/>
        <path id="패스_2438-2" data-name="패스 2438" d="M314.257,193.527c-.144-.2-.306-.417-.477-.663-.274-.4-.58-.847-.9-1.358-.274-.436-.561-.912-.853-1.425q-.146-.258-.291-.529l-.154-.288a26.1,26.1,0,0,1-3.1-10.108l-.256-.265a21.286,21.286,0,0,0-5.933-4.073c-.241-.115-.484-.227-.726-.333s-.473-.205-.7-.3a32.426,32.426,0,0,0-8.378-2.171,32.152,32.152,0,0,0,1.776,7.349c.086.232.174.466.266.7s.188.47.289.7a22.047,22.047,0,0,0,4.539,6.976,26.4,26.4,0,0,0,13.731,6.477c.31.054.592.1.829.132.349.049.619.083.789.1l.235.022v-.067C314.833,194.274,314.589,193.973,314.257,193.527Z" fill="#c94251"/>
        <path id="패스_2439-2" data-name="패스 2439" d="M317.606,191.5a28.342,28.342,0,0,0,4.407-10.432q.115-.664.2-1.348.06-.561.085-1.129c.01-.248.018-.5.018-.752a22.088,22.088,0,0,0-1.729-8.174c-.1-.235-.193-.469-.292-.7s-.2-.45-.3-.659a32.148,32.148,0,0,0-3.947-6.455,32.188,32.188,0,0,0-3.946,6.455q-.15.324-.3.659c-.1.224-.2.456-.292.7a22.088,22.088,0,0,0-1.729,8.174c0,.251,0,.5.018.752.015.38.044.757.083,1.129.048.455.115.9.2,1.348a28.358,28.358,0,0,0,4.407,10.432l.237.347c.1.154.2.3.3.432.146.2.282.395.394.551l.21.276c.108.14.2.252.266.337.1.117.148.18.148.18s.053-.061.148-.18c.067-.083.158-.2.266-.337l.209-.276c.121-.162.257-.346.395-.551.1-.136.2-.278.3-.432C317.454,191.736,317.532,191.621,317.606,191.5Z" fill="#c94251"/>
      </g>
    </g>
    <g id="사각형_19" data-name="사각형 19" transform="translate(1554.853 211.381) rotate(90)" fill="#fff" stroke="#1a1311" stroke-miterlimit="10" stroke-width="1">
      <rect width="702.992" height="246.614" stroke="none"/>
      <rect x="0.5" y="0.5" width="701.992" height="245.614" fill="none"/>
    </g>
    <text id="_87mm-3" data-name="87mm" transform="translate(1413.545 194.389)" fill="#1a1311" font-size="12" font-family="Helvetica"><tspan x="0" y="0">87mm</tspan></text>
    <text id="_248mm-4" data-name="248mm" transform="translate(1242.56 567.269)" fill="#1a1311" font-size="12" font-family="Helvetica"><tspan x="0" y="0">248mm</tspan></text>
    <text id="顯_叔_父_學_生_府_君_神_位-3" data-name="顯
叔
父
學
生
府
君
神
位" transform="translate(1410.735 398.57)" fill="#1a1311" font-size="41.62" font-family="BiauKaiTC-Regular, BiauKaiTC"><tspan x="0" y="0">顯</tspan><tspan x="0" y="49.944">叔</tspan><tspan x="0" y="99.887">父</tspan><tspan x="0" y="149.831">學</tspan><tspan x="0" y="199.775">生</tspan><tspan x="0" y="249.718">府</tspan><tspan x="0" y="299.662">君</tspan><tspan x="0" y="349.606">神</tspan><tspan x="0" y="399.549">位</tspan></text>
    <g id="그룹_878" data-name="그룹 878" transform="translate(320.827 141.932)">
      <g id="그룹_876" data-name="그룹 876">
        <g id="사각형_506" data-name="사각형 506">
          <rect id="사각형_20" data-name="사각형 20" width="9" height="9" transform="translate(993.081 75.118)" fill="none"/>
          <rect id="사각형_21" data-name="사각형 21" width="7" height="7" transform="translate(994.081 76.118)" fill="none" stroke="#14100e" stroke-width="2"/>
        </g>
        <g id="사각형_511" data-name="사각형 511">
          <rect id="사각형_22" data-name="사각형 22" width="9" height="9" transform="translate(993.081 757.772)" fill="none"/>
          <rect id="사각형_23" data-name="사각형 23" width="7" height="7" transform="translate(994.081 758.772)" fill="none" stroke="#14100e" stroke-width="2"/>
        </g>
        <rect id="사각형_507" data-name="사각형 507" width="2" height="9" transform="translate(1000.081 82.118)" fill="#14100e"/>
        <rect id="사각형_512" data-name="사각형 512" width="9" height="2" transform="translate(1000.081 757.772)" fill="#14100e"/>
        <rect id="사각형_509" data-name="사각형 509" width="9" height="2" transform="translate(993.081 89.118)" fill="#14100e"/>
        <rect id="사각형_513" data-name="사각형 513" width="2" height="9" transform="translate(1007.081 757.772)" fill="#14100e"/>
        <rect id="사각형_510" data-name="사각형 510" width="2" height="9" transform="translate(1007.081 75.118)" fill="#14100e"/>
        <rect id="사각형_516" data-name="사각형 516" width="2" height="663.654" transform="translate(993.081 89.118)" fill="#14100e"/>
        <rect id="사각형_514" data-name="사각형 514" width="9" height="2" transform="translate(993.081 750.772)" fill="#14100e"/>
        <rect id="사각형_508" data-name="사각형 508" width="9" height="2" transform="translate(1000.081 82.118)" fill="#14100e"/>
        <rect id="사각형_515" data-name="사각형 515" width="2" height="9" transform="translate(1000.081 750.772)" fill="#14100e"/>
      </g>
      <g id="그룹_877" data-name="그룹 877">
        <g id="사각형_506-2" data-name="사각형 506-2">
          <rect id="사각형_24" data-name="사각형 24" width="9" height="9" transform="translate(1219.356 757.772)" fill="none"/>
          <rect id="사각형_25" data-name="사각형 25" width="7" height="7" transform="translate(1220.356 758.772)" fill="none" stroke="#14100e" stroke-width="2"/>
        </g>
        <g id="사각형_511-2" data-name="사각형 511-2">
          <rect id="사각형_26" data-name="사각형 26" width="9" height="9" transform="translate(1219.356 75.118)" fill="none"/>
          <rect id="사각형_27" data-name="사각형 27" width="7" height="7" transform="translate(1220.356 76.118)" fill="none" stroke="#14100e" stroke-width="2"/>
        </g>
        <rect id="사각형_507-2" data-name="사각형 507-2" width="2" height="9" transform="translate(1219.356 750.772)" fill="#14100e"/>
        <rect id="사각형_512-2" data-name="사각형 512-2" width="9" height="2" transform="translate(1212.356 82.118)" fill="#14100e"/>
        <rect id="사각형_509-2" data-name="사각형 509-2" width="9" height="2" transform="translate(1219.356 750.772)" fill="#14100e"/>
        <rect id="사각형_513-2" data-name="사각형 513-2" width="2" height="9" transform="translate(1212.356 75.118)" fill="#14100e"/>
        <rect id="사각형_510-2" data-name="사각형 510-2" width="2" height="9" transform="translate(1212.356 757.772)" fill="#14100e"/>
        <rect id="사각형_516-2" data-name="사각형 516-2" width="2" height="661.654" transform="translate(1226.356 91.118)" fill="#14100e"/>
        <rect id="사각형_514-2" data-name="사각형 514-2" width="9" height="2" transform="translate(1219.356 89.118)" fill="#14100e"/>
        <rect id="사각형_508-2" data-name="사각형 508-2" width="9" height="2" transform="translate(1212.356 757.772)" fill="#14100e"/>
        <rect id="사각형_515-2" data-name="사각형 515-2" width="2" height="9" transform="translate(1219.356 82.118)" fill="#14100e"/>
      </g>
      <path id="패스_2460" data-name="패스 2460" d="M1007.08,77.118v-2h207.276v2Z" fill="#14100e"/>
      <path id="패스_2461" data-name="패스 2461" d="M1007.08,766.772v-2h207.276v2Z" fill="#14100e"/>
    </g>
    <path id="합치기_19-2" data-name="합치기 19" d="M1114.836,201.545h-8.241V183.012H1096.3v18.533h-8.235V174.773H1106.6V164.48h-18.535v-8.239h26.767v18.535h10.294V156.241h8.243v26.774h-18.534v10.294h18.534v8.238Z" transform="translate(320.827 141.932)" fill="#de0615"/>
    <text id="_87mm-4" data-name="87mm" transform="translate(1821.318 194.389)" fill="#1a1311" font-size="12" font-family="Helvetica"><tspan x="0" y="0">87mm</tspan></text>
    <g id="그룹_85" data-name="그룹 85" transform="translate(25.934 141.932)">
      <g id="그룹_65" data-name="그룹 65">
        <g id="그룹_45" data-name="그룹 45">
          <path id="패스_2421" data-name="패스 2421" d="M1696.81,93.424a5.552,5.552,0,0,0,0-11.1Z" fill="#14100e"/>
          <path id="패스_2422" data-name="패스 2422" d="M1702.362,76.77h-5.552v5.551a5.552,5.552,0,0,0,5.552-5.551" fill="#14100e"/>
          <path id="패스_2423" data-name="패스 2423" d="M1702.362,76.77a5.551,5.551,0,1,0,11.1.008V76.77Z" fill="#14100e"/>
        </g>
        <g id="그룹_46" data-name="그룹 46">
          <path id="패스_2421-2" data-name="패스 2421" d="M1913.306,76.77a5.551,5.551,0,0,0,11.1,0Z" fill="#14100e"/>
          <path id="패스_2422-2" data-name="패스 2422" d="M1929.96,82.321V76.77h-5.552a5.552,5.552,0,0,0,5.552,5.551" fill="#14100e"/>
          <path id="패스_2423-2" data-name="패스 2423" d="M1929.96,82.321a5.552,5.552,0,1,0-.008,11.1h.008Z" fill="#14100e"/>
        </g>
        <g id="그룹_47" data-name="그룹 47">
          <path id="패스_2424" data-name="패스 2424" d="M1696.81,104.526a5.552,5.552,0,0,0,0-11.1Z" fill="#14100e"/>
          <path id="패스_2425" data-name="패스 2425" d="M1696.81,115.628a5.551,5.551,0,0,0,0-11.1Z" fill="#14100e"/>
          <path id="패스_2421-3" data-name="패스 2421" d="M1696.81,126.731a5.552,5.552,0,0,0,0-11.1Z" fill="#14100e"/>
          <path id="패스_2424-2" data-name="패스 2424" d="M1696.81,137.832a5.551,5.551,0,0,0,0-11.1Z" fill="#14100e"/>
          <path id="패스_2425-2" data-name="패스 2425" d="M1696.81,148.935a5.551,5.551,0,0,0,0-11.1Z" fill="#14100e"/>
        </g>
        <g id="그룹_48" data-name="그룹 48">
          <path id="패스_2424-3" data-name="패스 2424" d="M1696.81,160.037a5.551,5.551,0,0,0,0-11.1Z" fill="#14100e"/>
          <path id="패스_2425-3" data-name="패스 2425" d="M1696.81,171.14a5.551,5.551,0,0,0,0-11.1Z" fill="#14100e"/>
          <path id="패스_2421-4" data-name="패스 2421" d="M1696.81,182.242a5.551,5.551,0,0,0,0-11.1Z" fill="#14100e"/>
          <path id="패스_2424-4" data-name="패스 2424" d="M1696.81,193.344a5.551,5.551,0,0,0,0-11.1Z" fill="#14100e"/>
          <path id="패스_2425-4" data-name="패스 2425" d="M1696.81,204.446a5.551,5.551,0,0,0,0-11.1Z" fill="#14100e"/>
        </g>
        <g id="그룹_49" data-name="그룹 49">
          <path id="패스_2424-5" data-name="패스 2424" d="M1696.81,215.549a5.551,5.551,0,0,0,0-11.1Z" fill="#14100e"/>
          <path id="패스_2425-5" data-name="패스 2425" d="M1696.81,226.652a5.551,5.551,0,0,0,0-11.1Z" fill="#14100e"/>
          <path id="패스_2421-5" data-name="패스 2421" d="M1696.81,237.754a5.551,5.551,0,0,0,0-11.1Z" fill="#14100e"/>
          <path id="패스_2424-6" data-name="패스 2424" d="M1696.81,248.856a5.551,5.551,0,0,0,0-11.1Z" fill="#14100e"/>
          <path id="패스_2425-6" data-name="패스 2425" d="M1696.81,259.958a5.551,5.551,0,0,0,0-11.1Z" fill="#14100e"/>
        </g>
        <g id="그룹_50" data-name="그룹 50">
          <path id="패스_2424-7" data-name="패스 2424" d="M1696.81,271.061a5.551,5.551,0,0,0,0-11.1Z" fill="#14100e"/>
          <path id="패스_2425-7" data-name="패스 2425" d="M1696.81,282.163a5.551,5.551,0,0,0,0-11.1Z" fill="#14100e"/>
          <path id="패스_2421-6" data-name="패스 2421" d="M1696.81,293.266a5.551,5.551,0,0,0,0-11.1Z" fill="#14100e"/>
          <path id="패스_2424-8" data-name="패스 2424" d="M1696.81,304.367a5.551,5.551,0,0,0,0-11.1Z" fill="#14100e"/>
          <path id="패스_2425-8" data-name="패스 2425" d="M1696.81,315.47a5.551,5.551,0,0,0,0-11.1Z" fill="#14100e"/>
        </g>
        <g id="그룹_51" data-name="그룹 51">
          <path id="패스_2424-9" data-name="패스 2424" d="M1696.81,326.572a5.551,5.551,0,0,0,0-11.1Z" fill="#14100e"/>
          <path id="패스_2425-9" data-name="패스 2425" d="M1696.81,337.675a5.551,5.551,0,0,0,0-11.1Z" fill="#14100e"/>
          <path id="패스_2421-7" data-name="패스 2421" d="M1696.81,348.777a5.551,5.551,0,0,0,0-11.1Z" fill="#14100e"/>
          <path id="패스_2424-10" data-name="패스 2424" d="M1696.81,359.879a5.551,5.551,0,0,0,0-11.1Z" fill="#14100e"/>
          <path id="패스_2425-10" data-name="패스 2425" d="M1696.81,370.982a5.551,5.551,0,0,0,0-11.1Z" fill="#14100e"/>
        </g>
        <g id="그룹_52" data-name="그룹 52">
          <path id="패스_2424-11" data-name="패스 2424" d="M1696.81,382.084a5.551,5.551,0,0,0,0-11.1Z" fill="#14100e"/>
          <path id="패스_2425-11" data-name="패스 2425" d="M1696.81,393.187a5.551,5.551,0,0,0,0-11.1Z" fill="#14100e"/>
          <path id="패스_2421-8" data-name="패스 2421" d="M1696.81,404.289a5.551,5.551,0,0,0,0-11.1Z" fill="#14100e"/>
          <path id="패스_2424-12" data-name="패스 2424" d="M1696.81,415.391a5.551,5.551,0,0,0,0-11.1Z" fill="#14100e"/>
          <path id="패스_2425-12" data-name="패스 2425" d="M1696.81,426.493a5.551,5.551,0,0,0,0-11.1Z" fill="#14100e"/>
        </g>
        <g id="그룹_53" data-name="그룹 53">
          <path id="패스_2424-13" data-name="패스 2424" d="M1696.81,437.6a5.551,5.551,0,0,0,0-11.1Z" fill="#14100e"/>
          <path id="패스_2425-13" data-name="패스 2425" d="M1696.81,448.7a5.551,5.551,0,0,0,0-11.1Z" fill="#14100e"/>
          <path id="패스_2421-9" data-name="패스 2421" d="M1696.81,459.8a5.551,5.551,0,0,0,0-11.1Z" fill="#14100e"/>
          <path id="패스_2424-14" data-name="패스 2424" d="M1696.81,470.9a5.551,5.551,0,0,0,0-11.1Z" fill="#14100e"/>
          <path id="패스_2425-14" data-name="패스 2425" d="M1696.81,482.005a5.551,5.551,0,0,0,0-11.1Z" fill="#14100e"/>
        </g>
        <g id="그룹_54" data-name="그룹 54">
          <path id="패스_2424-15" data-name="패스 2424" d="M1696.81,493.107a5.551,5.551,0,0,0,0-11.1Z" fill="#14100e"/>
          <path id="패스_2425-15" data-name="패스 2425" d="M1696.81,504.21a5.551,5.551,0,0,0,0-11.1Z" fill="#14100e"/>
          <path id="패스_2421-10" data-name="패스 2421" d="M1696.81,515.313a5.551,5.551,0,0,0,0-11.1Z" fill="#14100e"/>
          <path id="패스_2424-16" data-name="패스 2424" d="M1696.81,526.414a5.551,5.551,0,0,0,0-11.1Z" fill="#14100e"/>
          <path id="패스_2425-16" data-name="패스 2425" d="M1696.81,537.517a5.552,5.552,0,0,0,0-11.1Z" fill="#14100e"/>
        </g>
        <g id="그룹_55" data-name="그룹 55">
          <path id="패스_2424-17" data-name="패스 2424" d="M1696.81,548.619a5.551,5.551,0,0,0,0-11.1Z" fill="#14100e"/>
          <path id="패스_2425-17" data-name="패스 2425" d="M1696.81,559.722a5.551,5.551,0,0,0,0-11.1Z" fill="#14100e"/>
          <path id="패스_2421-11" data-name="패스 2421" d="M1696.81,570.824a5.551,5.551,0,0,0,0-11.1Z" fill="#14100e"/>
          <path id="패스_2424-18" data-name="패스 2424" d="M1696.81,581.926a5.552,5.552,0,0,0,0-11.1Z" fill="#14100e"/>
          <path id="패스_2425-18" data-name="패스 2425" d="M1696.81,593.028a5.551,5.551,0,0,0,0-11.1Z" fill="#14100e"/>
        </g>
        <g id="그룹_56" data-name="그룹 56">
          <path id="패스_2421-12" data-name="패스 2421" d="M1902.2,76.772a5.552,5.552,0,0,0,11.1,0Z" fill="#14100e"/>
          <path id="패스_2424-19" data-name="패스 2424" d="M1891.1,76.772a5.551,5.551,0,0,0,11.1,0Z" fill="#14100e"/>
          <path id="패스_2425-19" data-name="패스 2425" d="M1880,76.772a5.552,5.552,0,0,0,11.1,0Z" fill="#14100e"/>
        </g>
        <g id="그룹_57" data-name="그룹 57">
          <path id="패스_2424-20" data-name="패스 2424" d="M1868.9,76.772a5.551,5.551,0,0,0,11.1,0Z" fill="#14100e"/>
          <path id="패스_2425-20" data-name="패스 2425" d="M1857.794,76.772a5.552,5.552,0,0,0,11.1,0Z" fill="#14100e"/>
          <path id="패스_2421-13" data-name="패스 2421" d="M1846.692,76.772a5.551,5.551,0,0,0,11.1,0Z" fill="#14100e"/>
          <path id="패스_2424-21" data-name="패스 2424" d="M1835.59,76.772a5.552,5.552,0,0,0,11.1,0Z" fill="#14100e"/>
          <path id="패스_2425-21" data-name="패스 2425" d="M1824.487,76.772a5.551,5.551,0,0,0,11.1,0Z" fill="#14100e"/>
        </g>
        <g id="그룹_58" data-name="그룹 58">
          <path id="패스_2424-22" data-name="패스 2424" d="M1813.385,76.772a5.551,5.551,0,0,0,11.1,0Z" fill="#14100e"/>
          <path id="패스_2425-22" data-name="패스 2425" d="M1802.282,76.772a5.552,5.552,0,0,0,11.1,0Z" fill="#14100e"/>
          <path id="패스_2421-14" data-name="패스 2421" d="M1791.18,76.772a5.551,5.551,0,0,0,11.1,0Z" fill="#14100e"/>
          <path id="패스_2424-23" data-name="패스 2424" d="M1780.078,76.772a5.552,5.552,0,0,0,11.1,0Z" fill="#14100e"/>
          <path id="패스_2425-23" data-name="패스 2425" d="M1768.976,76.772a5.551,5.551,0,0,0,11.1,0Z" fill="#14100e"/>
        </g>
        <g id="그룹_59" data-name="그룹 59">
          <path id="패스_2424-24" data-name="패스 2424" d="M1757.873,76.772a5.551,5.551,0,0,0,11.1,0Z" fill="#14100e"/>
          <path id="패스_2425-24" data-name="패스 2425" d="M1746.771,76.772a5.551,5.551,0,0,0,11.1,0Z" fill="#14100e"/>
          <path id="패스_2421-15" data-name="패스 2421" d="M1735.668,76.772a5.552,5.552,0,0,0,11.1,0Z" fill="#14100e"/>
          <path id="패스_2424-25" data-name="패스 2424" d="M1724.567,76.772a5.551,5.551,0,0,0,11.1,0Z" fill="#14100e"/>
          <path id="패스_2425-25" data-name="패스 2425" d="M1713.464,76.772a5.552,5.552,0,0,0,11.1,0Z" fill="#14100e"/>
        </g>
        <g id="그룹_60" data-name="그룹 60">
          <path id="패스_2424-26" data-name="패스 2424" d="M1696.81,604.131a5.551,5.551,0,0,0,0-11.1Z" fill="#14100e"/>
          <path id="패스_2425-26" data-name="패스 2425" d="M1696.81,615.233a5.551,5.551,0,0,0,0-11.1Z" fill="#14100e"/>
          <path id="패스_2421-16" data-name="패스 2421" d="M1696.81,626.336a5.552,5.552,0,0,0,0-11.1Z" fill="#14100e"/>
          <path id="패스_2424-27" data-name="패스 2424" d="M1696.81,637.438a5.551,5.551,0,0,0,0-11.1Z" fill="#14100e"/>
          <path id="패스_2425-27" data-name="패스 2425" d="M1696.81,648.54a5.551,5.551,0,0,0,0-11.1Z" fill="#14100e"/>
        </g>
        <g id="그룹_61" data-name="그룹 61">
          <path id="패스_2424-28" data-name="패스 2424" d="M1696.81,659.643a5.552,5.552,0,0,0,0-11.1Z" fill="#14100e"/>
          <path id="패스_2425-28" data-name="패스 2425" d="M1696.81,670.745a5.551,5.551,0,0,0,0-11.1Z" fill="#14100e"/>
          <path id="패스_2421-17" data-name="패스 2421" d="M1696.81,681.848a5.552,5.552,0,0,0,0-11.1Z" fill="#14100e"/>
          <path id="패스_2424-29" data-name="패스 2424" d="M1696.81,692.949a5.551,5.551,0,0,0,0-11.1Z" fill="#14100e"/>
          <path id="패스_2425-29" data-name="패스 2425" d="M1696.81,704.052a5.552,5.552,0,0,0,0-11.1Z" fill="#14100e"/>
        </g>
        <g id="그룹_64" data-name="그룹 64">
          <g id="그룹_62" data-name="그룹 62">
            <path id="패스_2424-30" data-name="패스 2424" d="M1696.81,715.154a5.551,5.551,0,0,0,0-11.1Z" fill="#14100e"/>
            <path id="패스_2425-30" data-name="패스 2425" d="M1696.81,726.257a5.552,5.552,0,0,0,0-11.1Z" fill="#14100e"/>
            <path id="패스_2421-18" data-name="패스 2421" d="M1696.81,737.359a5.551,5.551,0,0,0,0-11.1Z" fill="#14100e"/>
            <path id="패스_2424-31" data-name="패스 2424" d="M1696.81,748.461a5.552,5.552,0,0,0,0-11.1Z" fill="#14100e"/>
            <path id="패스_2424-32" data-name="패스 2424" d="M1696.81,759.564a5.551,5.551,0,0,0,0-11.1Z" fill="#14100e"/>
          </g>
          <g id="그룹_63" data-name="그룹 63">
            <path id="패스_2422-3" data-name="패스 2422" d="M1702.362,765.12a5.552,5.552,0,0,0-5.552-5.552v5.552h5.552" fill="#14100e"/>
            <path id="패스_2423-3" data-name="패스 2423" d="M1713.464,765.12v-.008a5.551,5.551,0,1,0-11.1.008Z" fill="#14100e"/>
          </g>
        </g>
      </g>
      <g id="그룹_84" data-name="그룹 84">
        <g id="그룹_66" data-name="그룹 66">
          <path id="패스_2421-19" data-name="패스 2421" d="M1929.96,748.466a5.551,5.551,0,0,0,0,11.1Z" fill="#14100e"/>
          <path id="패스_2422-4" data-name="패스 2422" d="M1924.408,765.12h5.552v-5.552a5.552,5.552,0,0,0-5.552,5.552" fill="#14100e"/>
          <path id="패스_2423-4" data-name="패스 2423" d="M1924.408,765.12a5.551,5.551,0,1,0-11.1-.008v.008Z" fill="#14100e"/>
        </g>
        <g id="그룹_67" data-name="그룹 67">
          <path id="패스_2424-33" data-name="패스 2424" d="M1929.96,737.364a5.551,5.551,0,0,0,0,11.1Z" fill="#14100e"/>
          <path id="패스_2425-31" data-name="패스 2425" d="M1929.96,726.262a5.551,5.551,0,0,0,0,11.1Z" fill="#14100e"/>
          <path id="패스_2421-20" data-name="패스 2421" d="M1929.96,715.159a5.552,5.552,0,0,0,0,11.1Z" fill="#14100e"/>
          <path id="패스_2424-34" data-name="패스 2424" d="M1929.96,704.058a5.551,5.551,0,0,0,0,11.1Z" fill="#14100e"/>
          <path id="패스_2425-32" data-name="패스 2425" d="M1929.96,692.955a5.551,5.551,0,0,0,0,11.1Z" fill="#14100e"/>
        </g>
        <g id="그룹_68" data-name="그룹 68">
          <path id="패스_2424-35" data-name="패스 2424" d="M1929.96,681.853a5.551,5.551,0,0,0,0,11.1Z" fill="#14100e"/>
          <path id="패스_2425-33" data-name="패스 2425" d="M1929.96,670.75a5.552,5.552,0,0,0,0,11.1Z" fill="#14100e"/>
          <path id="패스_2421-21" data-name="패스 2421" d="M1929.96,659.647a5.552,5.552,0,0,0,0,11.1Z" fill="#14100e"/>
          <path id="패스_2424-36" data-name="패스 2424" d="M1929.96,648.546a5.551,5.551,0,0,0,0,11.1Z" fill="#14100e"/>
          <path id="패스_2425-34" data-name="패스 2425" d="M1929.96,637.443a5.552,5.552,0,0,0,0,11.1Z" fill="#14100e"/>
        </g>
        <g id="그룹_69" data-name="그룹 69">
          <path id="패스_2424-37" data-name="패스 2424" d="M1929.96,626.341a5.551,5.551,0,0,0,0,11.1Z" fill="#14100e"/>
          <path id="패스_2425-35" data-name="패스 2425" d="M1929.96,615.238a5.552,5.552,0,0,0,0,11.1Z" fill="#14100e"/>
          <path id="패스_2421-22" data-name="패스 2421" d="M1929.96,604.136a5.551,5.551,0,0,0,0,11.1Z" fill="#14100e"/>
          <path id="패스_2424-38" data-name="패스 2424" d="M1929.96,593.034a5.552,5.552,0,0,0,0,11.1Z" fill="#14100e"/>
          <path id="패스_2425-36" data-name="패스 2425" d="M1929.96,581.932a5.551,5.551,0,0,0,0,11.1Z" fill="#14100e"/>
        </g>
        <g id="그룹_70" data-name="그룹 70">
          <path id="패스_2424-39" data-name="패스 2424" d="M1929.96,570.829a5.552,5.552,0,0,0,0,11.1Z" fill="#14100e"/>
          <path id="패스_2425-37" data-name="패스 2425" d="M1929.96,559.727a5.551,5.551,0,0,0,0,11.1Z" fill="#14100e"/>
          <path id="패스_2421-23" data-name="패스 2421" d="M1929.96,548.624a5.551,5.551,0,0,0,0,11.1Z" fill="#14100e"/>
          <path id="패스_2424-40" data-name="패스 2424" d="M1929.96,537.523a5.551,5.551,0,0,0,0,11.1Z" fill="#14100e"/>
          <path id="패스_2425-38" data-name="패스 2425" d="M1929.96,526.42a5.552,5.552,0,0,0,0,11.1Z" fill="#14100e"/>
        </g>
        <g id="그룹_71" data-name="그룹 71">
          <path id="패스_2424-41" data-name="패스 2424" d="M1929.96,515.317a5.551,5.551,0,0,0,0,11.1Z" fill="#14100e"/>
          <path id="패스_2425-39" data-name="패스 2425" d="M1929.96,504.215a5.551,5.551,0,0,0,0,11.1Z" fill="#14100e"/>
          <path id="패스_2421-24" data-name="패스 2421" d="M1929.96,493.112a5.551,5.551,0,0,0,0,11.1Z" fill="#14100e"/>
          <path id="패스_2424-42" data-name="패스 2424" d="M1929.96,482.011a5.551,5.551,0,0,0,0,11.1Z" fill="#14100e"/>
          <path id="패스_2425-40" data-name="패스 2425" d="M1929.96,470.908a5.551,5.551,0,0,0,0,11.1Z" fill="#14100e"/>
        </g>
        <g id="그룹_72" data-name="그룹 72">
          <path id="패스_2424-43" data-name="패스 2424" d="M1929.96,459.806a5.551,5.551,0,0,0,0,11.1Z" fill="#14100e"/>
          <path id="패스_2425-41" data-name="패스 2425" d="M1929.96,448.7a5.551,5.551,0,0,0,0,11.1Z" fill="#14100e"/>
          <path id="패스_2421-25" data-name="패스 2421" d="M1929.96,437.6a5.551,5.551,0,0,0,0,11.1Z" fill="#14100e"/>
          <path id="패스_2424-44" data-name="패스 2424" d="M1929.96,426.5a5.551,5.551,0,0,0,0,11.1Z" fill="#14100e"/>
          <path id="패스_2425-42" data-name="패스 2425" d="M1929.96,415.4a5.551,5.551,0,0,0,0,11.1Z" fill="#14100e"/>
        </g>
        <g id="그룹_73" data-name="그룹 73">
          <path id="패스_2424-45" data-name="패스 2424" d="M1929.96,404.294a5.551,5.551,0,0,0,0,11.1Z" fill="#14100e"/>
          <path id="패스_2425-43" data-name="패스 2425" d="M1929.96,393.192a5.551,5.551,0,0,0,0,11.1Z" fill="#14100e"/>
          <path id="패스_2421-26" data-name="패스 2421" d="M1929.96,382.089a5.551,5.551,0,0,0,0,11.1Z" fill="#14100e"/>
          <path id="패스_2424-46" data-name="패스 2424" d="M1929.96,370.987a5.551,5.551,0,0,0,0,11.1Z" fill="#14100e"/>
          <path id="패스_2425-44" data-name="패스 2425" d="M1929.96,359.885a5.551,5.551,0,0,0,0,11.1Z" fill="#14100e"/>
        </g>
        <g id="그룹_74" data-name="그룹 74">
          <path id="패스_2424-47" data-name="패스 2424" d="M1929.96,348.782a5.551,5.551,0,0,0,0,11.1Z" fill="#14100e"/>
          <path id="패스_2425-45" data-name="패스 2425" d="M1929.96,337.68a5.551,5.551,0,0,0,0,11.1Z" fill="#14100e"/>
          <path id="패스_2421-27" data-name="패스 2421" d="M1929.96,326.577a5.551,5.551,0,0,0,0,11.1Z" fill="#14100e"/>
          <path id="패스_2424-48" data-name="패스 2424" d="M1929.96,315.476a5.551,5.551,0,0,0,0,11.1Z" fill="#14100e"/>
          <path id="패스_2425-46" data-name="패스 2425" d="M1929.96,304.373a5.552,5.552,0,0,0,0,11.1Z" fill="#14100e"/>
        </g>
        <g id="그룹_75" data-name="그룹 75">
          <path id="패스_2424-49" data-name="패스 2424" d="M1929.96,293.271a5.551,5.551,0,0,0,0,11.1Z" fill="#14100e"/>
          <path id="패스_2425-47" data-name="패스 2425" d="M1929.96,282.168a5.551,5.551,0,0,0,0,11.1Z" fill="#14100e"/>
          <path id="패스_2421-28" data-name="패스 2421" d="M1929.96,271.066a5.551,5.551,0,0,0,0,11.1Z" fill="#14100e"/>
          <path id="패스_2424-50" data-name="패스 2424" d="M1929.96,259.964a5.551,5.551,0,0,0,0,11.1Z" fill="#14100e"/>
          <path id="패스_2425-48" data-name="패스 2425" d="M1929.96,248.861a5.551,5.551,0,0,0,0,11.1Z" fill="#14100e"/>
        </g>
        <g id="그룹_76" data-name="그룹 76">
          <path id="패스_2421-29" data-name="패스 2421" d="M1724.567,765.118a5.552,5.552,0,0,0-11.1,0Z" fill="#14100e"/>
          <path id="패스_2424-51" data-name="패스 2424" d="M1735.668,765.118a5.551,5.551,0,0,0-11.1,0Z" fill="#14100e"/>
          <path id="패스_2425-49" data-name="패스 2425" d="M1746.771,765.118a5.552,5.552,0,0,0-11.1,0Z" fill="#14100e"/>
        </g>
        <g id="그룹_77" data-name="그룹 77">
          <path id="패스_2424-52" data-name="패스 2424" d="M1757.873,765.118a5.551,5.551,0,0,0-11.1,0Z" fill="#14100e"/>
          <path id="패스_2425-50" data-name="패스 2425" d="M1768.976,765.118a5.551,5.551,0,0,0-11.1,0Z" fill="#14100e"/>
          <path id="패스_2421-30" data-name="패스 2421" d="M1780.078,765.118a5.551,5.551,0,0,0-11.1,0Z" fill="#14100e"/>
          <path id="패스_2424-53" data-name="패스 2424" d="M1791.18,765.118a5.552,5.552,0,0,0-11.1,0Z" fill="#14100e"/>
          <path id="패스_2425-51" data-name="패스 2425" d="M1802.282,765.118a5.551,5.551,0,0,0-11.1,0Z" fill="#14100e"/>
        </g>
        <g id="그룹_78" data-name="그룹 78">
          <path id="패스_2424-54" data-name="패스 2424" d="M1813.385,765.118a5.552,5.552,0,0,0-11.1,0Z" fill="#14100e"/>
          <path id="패스_2425-52" data-name="패스 2425" d="M1824.487,765.118a5.551,5.551,0,0,0-11.1,0Z" fill="#14100e"/>
          <path id="패스_2421-31" data-name="패스 2421" d="M1835.59,765.118a5.551,5.551,0,0,0-11.1,0Z" fill="#14100e"/>
          <path id="패스_2424-55" data-name="패스 2424" d="M1846.692,765.118a5.552,5.552,0,0,0-11.1,0Z" fill="#14100e"/>
          <path id="패스_2425-53" data-name="패스 2425" d="M1857.794,765.118a5.551,5.551,0,0,0-11.1,0Z" fill="#14100e"/>
        </g>
        <g id="그룹_79" data-name="그룹 79">
          <path id="패스_2424-56" data-name="패스 2424" d="M1868.9,765.118a5.552,5.552,0,0,0-11.1,0Z" fill="#14100e"/>
          <path id="패스_2425-54" data-name="패스 2425" d="M1880,765.118a5.551,5.551,0,0,0-11.1,0Z" fill="#14100e"/>
          <path id="패스_2421-32" data-name="패스 2421" d="M1891.1,765.118a5.552,5.552,0,0,0-11.1,0Z" fill="#14100e"/>
          <path id="패스_2424-57" data-name="패스 2424" d="M1902.2,765.118a5.551,5.551,0,0,0-11.1,0Z" fill="#14100e"/>
          <path id="패스_2425-55" data-name="패스 2425" d="M1913.306,765.118a5.552,5.552,0,0,0-11.1,0Z" fill="#14100e"/>
        </g>
        <g id="그룹_80" data-name="그룹 80">
          <path id="패스_2424-58" data-name="패스 2424" d="M1929.96,237.759a5.551,5.551,0,0,0,0,11.1Z" fill="#14100e"/>
          <path id="패스_2425-56" data-name="패스 2425" d="M1929.96,226.656a5.551,5.551,0,0,0,0,11.1Z" fill="#14100e"/>
          <path id="패스_2421-33" data-name="패스 2421" d="M1929.96,215.554a5.551,5.551,0,0,0,0,11.1Z" fill="#14100e"/>
          <path id="패스_2424-59" data-name="패스 2424" d="M1929.96,204.452a5.551,5.551,0,0,0,0,11.1Z" fill="#14100e"/>
          <path id="패스_2425-57" data-name="패스 2425" d="M1929.96,193.35a5.551,5.551,0,0,0,0,11.1Z" fill="#14100e"/>
        </g>
        <g id="그룹_81" data-name="그룹 81">
          <path id="패스_2424-60" data-name="패스 2424" d="M1929.96,182.247a5.552,5.552,0,0,0,0,11.1Z" fill="#14100e"/>
          <path id="패스_2425-58" data-name="패스 2425" d="M1929.96,171.145a5.551,5.551,0,0,0,0,11.1Z" fill="#14100e"/>
          <path id="패스_2421-34" data-name="패스 2421" d="M1929.96,160.042a5.551,5.551,0,0,0,0,11.1Z" fill="#14100e"/>
          <path id="패스_2424-61" data-name="패스 2424" d="M1929.96,148.941a5.551,5.551,0,0,0,0,11.1Z" fill="#14100e"/>
          <path id="패스_2425-59" data-name="패스 2425" d="M1929.96,137.838a5.551,5.551,0,0,0,0,11.1Z" fill="#14100e"/>
        </g>
        <g id="그룹_83" data-name="그룹 83">
          <g id="그룹_82" data-name="그룹 82">
            <path id="패스_2424-62" data-name="패스 2424" d="M1929.96,126.736a5.551,5.551,0,0,0,0,11.1Z" fill="#14100e"/>
            <path id="패스_2425-60" data-name="패스 2425" d="M1929.96,115.633a5.551,5.551,0,0,0,0,11.1Z" fill="#14100e"/>
            <path id="패스_2421-35" data-name="패스 2421" d="M1929.96,104.53a5.552,5.552,0,0,0,0,11.1Z" fill="#14100e"/>
            <path id="패스_2424-63" data-name="패스 2424" d="M1929.96,93.429a5.551,5.551,0,0,0,0,11.1Z" fill="#14100e"/>
          </g>
        </g>
      </g>
    </g>
    <g id="타원_90-2" data-name="타원 90" transform="translate(25.934 141.932)">
      <g id="그룹_86" data-name="그룹 86">
        <circle id="타원_4" data-name="타원 4" cx="22.653" cy="22.653" r="22.653" transform="translate(1790.734 156.241)" fill="none"/>
      </g>
      <g id="그룹_87" data-name="그룹 87">
        <path id="패스_2" data-name="패스 2" d="M1813.386,201.547a22.653,22.653,0,1,1,22.653-22.653A22.678,22.678,0,0,1,1813.386,201.547Zm0-36.676a14.023,14.023,0,1,0,14.023,14.023A14.039,14.039,0,0,0,1813.386,164.871Z" fill="#eaad2d"/>
      </g>
    </g>
    <path id="합치기_14-2" data-name="합치기 14" d="M184.076-36.75a3.124,3.124,0,0,1-3.125-3.125A3.125,3.125,0,0,1,184.076-43V-57.06h-4.687a3.125,3.125,0,0,1-3.125,3.125,3.124,3.124,0,0,1-3.125-3.125,3.124,3.124,0,0,1-3.125-3.125,3.125,3.125,0,0,1,3.125-3.125,3.125,3.125,0,0,1,3.125-3.125,3.126,3.126,0,0,1,3.125,3.125h4.687v-6.249a3.124,3.124,0,0,1-3.125-3.125,3.125,3.125,0,0,1,3.125-3.125,3.125,3.125,0,0,1,3.125-3.125,3.126,3.126,0,0,1,3.125,3.125,3.126,3.126,0,0,1,3.125,3.125,3.125,3.125,0,0,1-3.125,3.125v6.249h4.687a3.125,3.125,0,0,1,3.125-3.125,3.126,3.126,0,0,1,3.125,3.125,3.126,3.126,0,0,1,3.125,3.125,3.125,3.125,0,0,1-3.125,3.125,3.125,3.125,0,0,1-3.125,3.125,3.124,3.124,0,0,1-3.125-3.125h-4.687V-43a3.126,3.126,0,0,1,3.125,3.125,3.125,3.125,0,0,1-3.125,3.125,3.125,3.125,0,0,1-3.125,3.125A3.124,3.124,0,0,1,184.076-36.75Z" transform="translate(400.985 376.932)" fill="#262727"/>
    <text id="주님_그에게_영원한_안식을_주소서" data-name="주님  

그에게

영원한

안식을

주소서" transform="translate(652 362)" fill="#1a1311" font-size="20" font-family="AppleSDGothicNeo-Regular, Apple SD Gothic Neo"><tspan x="0" y="18">주</tspan><tspan x="0" y="45">님</tspan><tspan y="45" xml:space="preserve" font-family="Helvetica">  </tspan><tspan font-family="Helvetica"><tspan x="0" y="72"></tspan></tspan><tspan x="0" y="99">그</tspan><tspan x="0" y="126">에</tspan><tspan x="0" y="153">게</tspan><tspan y="153" font-family="Helvetica"></tspan><tspan font-family="Helvetica"><tspan x="0" y="180"></tspan></tspan><tspan x="0" y="207">영</tspan><tspan x="0" y="234">원</tspan><tspan x="0" y="261">한</tspan><tspan y="261" font-family="Helvetica"></tspan><tspan font-family="Helvetica"><tspan x="0" y="288"></tspan></tspan><tspan x="0" y="315">안</tspan><tspan x="0" y="342">식</tspan><tspan x="0" y="369">을</tspan><tspan y="369" font-family="Helvetica"></tspan><tspan font-family="Helvetica"><tspan x="0" y="396"></tspan></tspan><tspan x="0" y="423">주</tspan><tspan x="0" y="450">소</tspan><tspan x="0" y="477">서</tspan></text>
    <text id="영_원_한_빛_을_그_에_게_비_추_소_서" data-name="영
원
한

빛
을

그
에
게

비
추
소
서" transform="translate(497 362)" fill="#1a1311" font-size="20" font-family="AppleSDGothicNeo-Regular, Apple SD Gothic Neo"><tspan x="0" y="18">영</tspan><tspan y="18" font-family="Helvetica"></tspan><tspan x="0" y="45">원</tspan><tspan y="45" font-family="Helvetica"></tspan><tspan x="0" y="72">한</tspan><tspan y="72" font-family="Helvetica"></tspan><tspan font-family="Helvetica"><tspan x="0" y="99"></tspan></tspan><tspan x="0" y="126">빛</tspan><tspan y="126" font-family="Helvetica"></tspan><tspan x="0" y="153">을</tspan><tspan y="153" font-family="Helvetica"></tspan><tspan font-family="Helvetica"><tspan x="0" y="180"></tspan></tspan><tspan x="0" y="207">그</tspan><tspan y="207" font-family="Helvetica"></tspan><tspan x="0" y="234">에</tspan><tspan y="234" font-family="Helvetica"></tspan><tspan x="0" y="261">게</tspan><tspan y="261" font-family="Helvetica"></tspan><tspan font-family="Helvetica"><tspan x="0" y="288"></tspan></tspan><tspan x="0" y="315">비</tspan><tspan y="315" font-family="Helvetica"></tspan><tspan x="0" y="342">추</tspan><tspan y="342" font-family="Helvetica"></tspan><tspan x="0" y="369">소</tspan><tspan y="369" font-family="Helvetica"></tspan></text>
  </g>
</svg>
